<svg width="25" height="24" viewBox="0 0 25 24" fill="none" xmlns="http://www.w3.org/2000/svg">
<path fill-rule="evenodd" clip-rule="evenodd" d="M19.5221 19C19.4851 19 19.4481 19 19.4101 19C18.1991 18.797 17.3751 17.926 16.6711 17.117C16.2741 16.662 15.6641 15.631 14.9381 15.748C13.9071 15.92 14.4171 17.717 13.9881 18.486C13.6391 19.109 12.1571 18.996 11.1351 18.884C7.90912 18.536 6.26112 16.78 4.81612 14.894C3.27212 12.878 2.07012 10.769 0.958117 8.45303C0.599117 7.70303 0.120117 6.87303 0.120117 5.94503C0.642117 5.50903 1.49512 5.65903 2.35612 5.65903C3.08612 5.65903 4.22612 5.49603 4.76012 5.77303C5.07712 5.93703 5.39812 6.81103 5.65512 7.37003C6.24312 8.65003 6.78512 9.57003 7.50012 10.619C7.81012 11.074 8.28512 11.93 8.84212 11.816C9.38312 11.705 9.43412 10.347 9.45812 9.47803C9.48412 8.49203 9.45612 7.26603 9.17812 6.74103C8.91512 6.24703 8.43412 6.23803 7.94812 5.94403C8.35312 5.11303 9.46312 5.03103 10.8001 5.03103C11.9251 5.03103 13.4931 4.90303 13.9321 5.65803C14.3781 6.42603 14.0731 7.81203 14.0441 8.85103C14.0121 10.019 13.8141 11.222 14.6031 11.757C15.2101 11.691 15.5381 11.089 15.8891 10.618C16.6601 9.58703 17.1381 8.69603 17.7351 7.36803C17.9801 6.82303 18.2431 5.88603 18.6861 5.71503C19.3611 5.45403 20.4371 5.65703 21.4251 5.65703C22.2351 5.65703 23.6821 5.42903 23.9421 5.99903C24.1581 6.47203 23.5221 7.66703 23.3271 7.99403C22.5781 9.24603 21.8441 10.043 21.0341 11.131C20.7121 11.565 20.0451 12.26 20.0841 12.953C20.1141 13.482 20.6331 13.887 21.0341 14.265C21.9031 15.087 22.5121 15.687 23.2161 16.603C23.4811 16.949 24.0531 17.695 23.9981 18.142C23.8261 19.537 20.6071 18.664 19.5221 19Z" fill="#1B2738"/>
</svg>